<?xml version="1.0" standalone="no"?>
<!DOCTYPE svg PUBLIC "-//W3C//DTD SVG 20010904//EN"
 "http://www.w3.org/TR/2001/REC-SVG-20010904/DTD/svg10.dtd">
<svg version="1.0" xmlns="http://www.w3.org/2000/svg"
 width="35.000000pt" height="34.000000pt" viewBox="0 0 35.000000 34.000000"
 preserveAspectRatio="xMidYMid meet">
<metadata>
Created by potrace 1.16, written by Peter Selinger 2001-2019
</metadata>
<g transform="translate(0.000000,34.000000) scale(0.100000,-0.100000)"
fill="#000000" stroke="none">
<path d="M12 328 c-7 -7 -12 -27 -12 -45 0 -35 21 -53 63 -53 31 0 60 -32 55
-62 -3 -20 -9 -23 -46 -23 -32 0 -48 -5 -58 -19 -45 -62 32 -130 86 -76 11 11
20 29 20 39 0 23 16 30 50 21 22 -5 25 -11 22 -44 -4 -46 11 -66 52 -66 41 0
56 16 56 58 0 28 -5 35 -35 48 -27 11 -35 20 -35 39 0 28 8 30 44 14 20 -10
30 -9 51 5 46 30 23 106 -32 106 -22 0 -53 -29 -53 -49 0 -20 -80 -3 -107 22
-13 11 -23 31 -23 43 0 12 -7 30 -16 38 -18 19 -65 21 -82 4z"/>
</g>
</svg>
